<svg width="22" height="22" viewBox="0 0 22 22" fill="none" xmlns="http://www.w3.org/2000/svg">
<path d="M21.9999 11.1666C21.9999 5.16658 17.1666 0.333252 11.1666 0.333252C5.16659 0.333252 0.333252 5.16658 0.333252 11.1666C0.333252 14.1666 1.58325 16.9166 3.66659 18.9999L4.24992 19.4999L5.08325 20.1666V20.0832C6.83325 21.2499 8.99992 21.9166 11.1666 21.9166C13.3333 21.9166 15.4166 21.2499 17.2499 20.0832V20.1666L18.0833 19.4999L18.6666 18.9999C20.7499 16.9166 21.9999 14.1666 21.9999 11.1666ZM2.16659 11.1666C2.16659 6.16658 6.16659 2.16658 11.1666 2.16658C16.1666 2.16658 20.1666 6.16658 20.1666 11.1666C20.1666 13.5832 19.2499 15.7499 17.5833 17.4999C17.4166 17.2499 17.1666 16.9999 16.9166 16.8332L16.6666 16.5832C16.4999 16.4166 16.3333 16.3332 16.1666 16.1666C16.0833 16.0832 15.9166 15.9999 15.8333 15.9166C15.6666 15.8332 15.4999 15.6666 15.3333 15.5832C15.2499 15.4999 15.0833 15.4166 14.9999 15.4166L14.4999 15.1666C14.4166 15.0832 14.2499 15.0832 14.1666 14.9999C13.9999 14.9166 13.7499 14.8332 13.5833 14.8332C13.4999 14.8332 13.3333 14.7499 13.2499 14.7499C12.9999 14.6666 12.8333 14.6666 12.5833 14.5832C12.4999 14.5832 12.3333 14.4999 12.2499 14.4999C11.9166 14.4999 11.5833 14.4166 11.2499 14.4166C10.9166 14.4166 10.5833 14.4166 10.2499 14.4999C10.1666 14.4999 9.99992 14.4999 9.91659 14.5832C9.66659 14.5832 9.49992 14.6666 9.24992 14.7499C9.08325 14.7499 8.99992 14.8332 8.91659 14.8332C8.74992 14.9166 8.49992 14.9166 8.33325 14.9999C8.16659 15.0832 8.08325 15.0832 7.99992 15.1666L7.49992 15.4166C7.41659 15.4999 7.24992 15.5832 7.16659 15.5832C6.99992 15.6666 6.83325 15.8332 6.66659 15.9166C6.58325 15.9999 6.41659 16.0832 6.33325 16.1666C6.16659 16.3332 5.99992 16.4166 5.83325 16.5832L4.91659 17.4999C3.08325 15.7499 2.16659 13.5832 2.16659 11.1666Z" fill="#2A4BC0"/>
<path d="M11.1665 13.7499C13.4998 13.7499 15.4165 11.8333 15.4165 9.49992C15.4165 7.16659 13.4998 5.33325 11.1665 5.33325C8.83317 5.33325 6.9165 7.24992 6.9165 9.58325C6.9165 11.9166 8.83317 13.7499 11.1665 13.7499Z" fill="#2A4BC0"/>
</svg>
