<svg width="151" height="150" viewBox="0 0 151 150" fill="none" xmlns="http://www.w3.org/2000/svg">
<g clip-path="url(#clip0_112_16)">
<path d="M47.166 123.748C19.4654 107.198 5.61515 98.9225 1.98673 87.8706C0.00442326 81.8326 0.00442326 75.3732 1.98673 69.3352C5.61515 58.2833 19.4654 50.0083 47.166 33.4581C78.6143 14.6689 94.3384 5.27435 107.28 7.5374C114.316 8.76785 120.746 12.0881 125.625 17.0099C134.599 26.0623 134.599 43.5758 134.599 78.6029C134.599 113.63 134.599 131.144 125.625 140.196C120.746 145.118 114.316 148.438 107.28 149.668C94.3384 151.931 78.6143 142.537 47.166 123.748Z" fill="#56CCF2" fill-opacity="0.1"/>
<path d="M80.3924 134.92C113.792 136.603 130.492 137.444 139.757 129.634C144.674 125.49 148.183 119.886 149.822 113.562C152.911 101.644 145.29 86.3056 130.046 55.6293C113.994 23.3239 105.967 7.17126 94.1376 2.3794C87.8731 -0.158156 81.0525 -0.681129 74.6214 0.88301C62.4773 3.8367 53.1932 18.6621 34.625 48.313C16.0569 77.9638 6.77276 92.7892 9.1628 105.411C10.4285 112.096 13.6999 118.286 18.5234 123.125C27.6321 132.262 45.2189 133.148 80.3924 134.92Z" fill="#56CCF2" fill-opacity="0.1"/>
</g>
<defs>
<clipPath id="clip0_112_16">
<rect width="150" height="150" fill="white" transform="translate(0.5)"/>
</clipPath>
</defs>
</svg>
