<svg width="1766" height="845" viewBox="0 0 1766 845" fill="none" xmlns="http://www.w3.org/2000/svg">
<path d="M74.2918 111.698C74.4428 104.896 81.8984 100.807 87.7121 104.339L174.046 156.789C179.86 160.32 179.671 168.824 173.706 172.095L85.133 220.663C79.1684 223.933 71.9013 219.518 72.0521 212.716L74.2918 111.698Z" stroke="#56CCF2" stroke-width="5"/>
<path d="M650.901 607.851C657.685 604.187 665.889 609.243 665.669 616.952L663.923 678.164C663.703 685.873 655.224 690.452 648.66 686.408L596.539 654.288C589.976 650.244 590.252 640.608 597.034 636.944L650.901 607.851Z" stroke="#F2F2F2" stroke-width="3"/>
<path d="M540.757 845C550.517 845 558.429 837.086 558.429 827.322C558.429 817.559 550.517 809.645 540.757 809.645C530.997 809.645 523.085 817.559 523.085 827.322C523.085 837.086 530.997 845 540.757 845Z" fill="#F8F8F8" fill-opacity="0.5"/>
<path d="M1708.43 354.886C1703.83 359.904 1695.54 358.064 1693.49 351.575L1675.06 293.176C1673.02 286.687 1678.76 280.415 1685.41 281.886L1745.17 295.129C1751.82 296.6 1754.37 304.71 1749.78 309.728L1708.43 354.886Z" stroke="#56CCF2" stroke-width="5"/>
<path d="M1655.46 616.312L1628.1 605.408C1622.06 602.999 1615.2 605.948 1612.8 611.994L1601.9 639.365C1599.49 645.412 1602.43 652.266 1608.48 654.675L1635.84 665.58C1641.89 667.989 1648.74 665.04 1651.15 658.993L1662.05 631.623C1664.45 625.576 1661.51 618.721 1655.46 616.312Z" fill="#F2F2F2" fill-opacity="0.5"/>
<path d="M1518.81 6.38654L1486.49 20.6969C1481.44 22.9362 1479.15 28.8526 1481.39 33.9117L1495.7 66.2418C1497.94 71.3008 1503.85 73.5867 1508.91 71.3474L1541.23 57.0371C1546.28 54.7978 1548.57 48.8813 1546.33 43.8223L1532.02 11.4921C1529.79 6.4331 1523.87 4.14725 1518.81 6.38654Z" stroke="#F2F2F2" stroke-width="3"/>
</svg>
