<svg width="40" height="21" viewBox="0 0 40 21" fill="none" xmlns="http://www.w3.org/2000/svg">
<path d="M0 10.5C0 9.67157 0.671573 9 1.5 9H38.5C39.3284 9 40 9.67157 40 10.5C40 11.3284 39.3284 12 38.5 12H1.5C0.671574 12 0 11.3284 0 10.5Z" fill="#2A4BC0"/>
<path d="M0 1.5C0 0.671573 0.671573 0 1.5 0H38.5C39.3284 0 40 0.671573 40 1.5C40 2.32843 39.3284 3 38.5 3H1.5C0.671574 3 0 2.32843 0 1.5Z" fill="#2A4BC0"/>
<path d="M0 19.5C0 18.6716 0.671573 18 1.5 18H38.5C39.3284 18 40 18.6716 40 19.5C40 20.3284 39.3284 21 38.5 21H1.5C0.671573 21 0 20.3284 0 19.5Z" fill="#2A4BC0"/>
</svg>
