<svg width="16" height="16" viewBox="0 0 16 16" fill="none" xmlns="http://www.w3.org/2000/svg">
<path d="M7.99995 0.208984C5.93355 0.208984 3.95186 1.02986 2.49055 2.49104C1.0294 3.95232 0.208496 5.93426 0.208496 8.00044C0.208496 10.0666 1.02937 12.0485 2.49055 13.5098C3.95183 14.971 5.93377 15.7919 7.99995 15.7919C10.0661 15.7919 12.048 14.971 13.5094 13.5098C14.9705 12.0486 15.7914 10.0666 15.7914 8.00044C15.7892 5.93467 14.9677 3.95426 13.5069 2.49359C12.0462 1.03279 10.0656 0.211274 8.00002 0.209048L7.99995 0.208984ZM7.99995 14.679C6.22873 14.679 4.53002 13.9753 3.27766 12.7229C2.02519 11.4704 1.32157 9.77172 1.32157 8.00057C1.32157 6.22941 2.02519 4.53064 3.27766 3.27827C4.53012 2.02581 6.2288 1.32219 7.99995 1.32219C9.77111 1.32219 11.4699 2.02581 12.7222 3.27827C13.9747 4.53073 14.6783 6.22941 14.6783 8.00057C14.6765 9.77118 13.9722 11.4686 12.7202 12.721C11.4681 13.973 9.7705 14.6773 7.99976 14.6791L7.99995 14.679Z" fill="#2A4BC0"/>
<path d="M8.55643 7.76986V2.99159C8.55643 2.7927 8.45034 2.60898 8.27816 2.50959C8.10598 2.41021 7.8938 2.41021 7.72163 2.50959C7.54945 2.60898 7.44336 2.79271 7.44336 2.99159V8.00042C7.44373 8.07335 7.45827 8.14564 7.48622 8.21298C7.51405 8.28093 7.55504 8.34267 7.60697 8.39447L10.3897 11.1772C10.531 11.3137 10.7339 11.3655 10.9235 11.3136C11.113 11.2616 11.2611 11.1136 11.313 10.924C11.365 10.7344 11.3132 10.5315 11.1766 10.3902L8.55643 7.76986Z" fill="#2A4BC0"/>
</svg>
