<svg width="39" height="40" viewBox="0 0 39 40" fill="none" xmlns="http://www.w3.org/2000/svg">
<path d="M28.7868 29.9972C28.386 30.4012 27.7361 30.4012 27.3353 29.9972L9.4344 11.9537C9.03359 11.5498 9.03359 10.8947 9.4344 10.4907C9.83521 10.0867 10.485 10.0867 10.8858 10.4907L28.7868 28.5342C29.1875 28.9382 29.1875 29.5932 28.7868 29.9972Z" fill="#4F4F4F"/>
<path d="M9.4344 29.5094C9.03359 29.1054 9.03359 28.4503 9.4344 28.0464L27.3353 10.003C27.7361 9.59895 28.386 9.59895 28.7868 10.003C29.1876 10.407 29.1876 11.0619 28.7868 11.4659L10.8858 29.5094C10.485 29.9134 9.83521 29.9134 9.4344 29.5094Z" fill="#4F4F4F"/>
</svg>
