<svg width="36" height="36" viewBox="0 0 36 36" fill="none" xmlns="http://www.w3.org/2000/svg">
<g opacity="0.6">
<path d="M32.0728 32.4957C31.487 33.0815 30.5372 33.0815 29.9514 32.4957L3.78847 6.33275C3.20267 5.74705 3.20267 4.79724 3.78847 4.21144C4.37427 3.62564 5.32397 3.62564 5.90977 4.21144L32.0728 30.3744C32.6585 30.9602 32.6585 31.9099 32.0728 32.4957Z" fill="white"/>
<path d="M3.78847 31.7886C3.20267 31.2028 3.20267 30.253 3.78847 29.6673L29.9514 3.50429C30.5372 2.91849 31.487 2.91849 32.0728 3.50429C32.6585 4.09009 32.6585 5.03979 32.0728 5.62559L5.90977 31.7886C5.32397 32.3744 4.37427 32.3744 3.78847 31.7886Z" fill="white"/>
</g>
</svg>
