<svg width="40" height="40" viewBox="0 0 40 40" fill="none" xmlns="http://www.w3.org/2000/svg">
<path d="M29.5251 29.9971C29.114 30.4011 28.4475 30.4011 28.0364 29.9971L9.67648 11.9536C9.26539 11.5497 9.26539 10.8946 9.67648 10.4906C10.0876 10.0866 10.754 10.0866 11.1651 10.4906L29.5251 28.5341C29.9361 28.9381 29.9361 29.5931 29.5251 29.9971Z" fill="#9F9F9F"/>
<path d="M9.67648 29.5095C9.26539 29.1055 9.26539 28.4504 9.67648 28.0465L28.0364 10.003C28.4475 9.59905 29.114 9.59905 29.5251 10.003C29.9361 10.407 29.9361 11.062 29.5251 11.466L11.1651 29.5095C10.754 29.9135 10.0876 29.9135 9.67648 29.5095Z" fill="#9F9F9F"/>
</svg>
