<svg width="43" height="44" viewBox="0 0 43 44" fill="none" xmlns="http://www.w3.org/2000/svg">
<path d="M10.3414 32.3421C9.90205 31.9028 9.90205 31.1905 10.3414 30.7511L29.9636 11.1289C30.4029 10.6896 31.1153 10.6896 31.5546 11.1289C31.9939 11.5683 31.9939 12.2806 31.5546 12.7199L11.9324 32.3421C11.493 32.7815 10.7807 32.7815 10.3414 32.3421Z" fill="#C4C4C4"/>
<path d="M10.3412 11.6593C10.7806 11.2199 11.4929 11.2199 11.9322 11.6593L31.5544 31.2815C31.9938 31.7208 31.9938 32.4331 31.5544 32.8725C31.1151 33.3118 30.4028 33.3118 29.9634 32.8725L10.3412 13.2503C9.90188 12.8109 9.90188 12.0986 10.3412 11.6593Z" fill="#C4C4C4"/>
</svg>
