<svg width="32" height="32" viewBox="0 0 32 32" fill="none" xmlns="http://www.w3.org/2000/svg">
<g clip-path="url(#clip0_20_2288)">
<path d="M0 7.9002V24.0993C0 26.3314 1.82093 28.1523 4.05303 28.1523H17.1454C19.3775 28.1523 21.1984 26.3314 21.1984 24.0993V21.4756C21.1984 21.0318 20.8395 20.6728 20.3957 20.6728C19.9519 20.6728 19.5929 21.0318 19.5929 21.4756V24.0993C19.5929 25.4503 18.4899 26.5533 17.1389 26.5533H4.05303C2.70202 26.5533 1.59902 25.4503 1.59902 24.0993V7.9002C1.59902 6.54919 2.70202 5.44619 4.05303 5.44619H17.1454C18.4964 5.44619 19.5994 6.54919 19.5994 7.9002V10.5239C19.5994 10.9678 19.9584 11.3267 20.4022 11.3267C20.846 11.3267 21.205 10.9678 21.205 10.5239V7.9002C21.205 5.6681 19.384 3.84717 17.1519 3.84717H4.05303C1.82093 3.84717 0 5.66157 0 7.9002Z" fill="white"/>
<path d="M25.1539 22.0369C25.3106 22.1936 25.5129 22.2719 25.7218 22.2719C25.9306 22.2719 26.1329 22.1936 26.2896 22.0369L31.7654 16.5611C32.0787 16.2478 32.0787 15.7453 31.7654 15.432L26.2896 9.95615C25.9763 9.64287 25.4738 9.64287 25.1605 9.95615C24.8472 10.2694 24.8472 10.772 25.1605 11.0853L29.2722 15.197H14.2676C13.8237 15.197 13.4648 15.556 13.4648 15.9998C13.4648 16.4436 13.8237 16.8026 14.2676 16.8026H29.2657L25.1539 20.9144C24.8407 21.2211 24.8407 21.7302 25.1539 22.0369Z" fill="white"/>
</g>
<defs>
<clipPath id="clip0_20_2288">
<rect width="32" height="32" fill="white"/>
</clipPath>
</defs>
</svg>
