<svg width="405" height="39" viewBox="0 0 405 39" fill="none" xmlns="http://www.w3.org/2000/svg">
<g clip-path="url(#clip0_901_319)">
<path d="M19.5 3.25058C22.0222 3.25372 24.5092 3.84246 26.7651 4.97042C29.021 6.09837 30.9842 7.73473 32.5 9.75058H30.875V13.0005H35.75C36.0911 13.0006 36.4235 12.8933 36.7002 12.6939C36.9769 12.4944 37.1839 12.213 37.2917 11.8894L38.9167 7.01449L35.8333 5.98667L35.1884 7.92246C32.7507 4.61902 29.3326 2.16928 25.4211 0.922351C21.5095 -0.324582 17.3042 -0.30508 13.4045 0.978077C9.50468 2.26123 6.1094 4.74257 3.7025 8.06847C1.2956 11.3943 -0.000121565 15.3951 8.55437e-09 19.5005H3.25C3.25489 15.1923 4.96851 11.0619 8.01492 8.0155C11.0613 4.96909 15.1917 3.25547 19.5 3.25058Z" fill="white"/>
<path d="M35.7502 19.5C35.7502 22.9106 34.6771 26.2347 32.6829 29.0015C30.6887 31.7683 27.8745 33.8376 24.6389 34.9161C21.4033 35.9946 17.9104 36.0278 14.655 35.0108C11.3995 33.9939 8.54657 31.9785 6.50021 29.25H8.12521V26H3.25021C2.90914 26 2.57671 26.1073 2.3 26.3067C2.0233 26.5061 1.81636 26.7875 1.7085 27.1111L0.0834961 31.9861L3.16693 33.0139L3.81185 31.0781C6.2495 34.3815 9.66764 36.8313 13.5792 38.0782C17.4907 39.3251 21.696 39.3056 25.5958 38.0225C29.4955 36.7393 32.8908 34.258 35.2977 30.9321C37.7046 27.6062 39.0003 23.6054 39.0002 19.5H35.7502Z" fill="white"/>
<path d="M8.125 19.5C8.125 21.7497 8.79214 23.949 10.042 25.8196C11.2919 27.6902 13.0685 29.1482 15.147 30.0091C17.2255 30.8701 19.5126 31.0953 21.7192 30.6564C23.9257 30.2175 25.9525 29.1341 27.5433 27.5433C29.1342 25.9525 30.2175 23.9257 30.6564 21.7191C31.0953 19.5126 30.8701 17.2255 30.0091 15.147C29.1482 13.0684 27.6902 11.2919 25.8196 10.042C23.949 8.79214 21.7498 8.125 19.5 8.125C16.4842 8.12839 13.5929 9.32791 11.4604 11.4604C9.32791 13.5929 8.12839 16.4842 8.125 19.5ZM24.375 13V16.25H18.6875C18.472 16.25 18.2654 16.3356 18.113 16.488C17.9606 16.6403 17.875 16.847 17.875 17.0625C17.875 17.278 17.9606 17.4846 18.113 17.637C18.2654 17.7894 18.472 17.875 18.6875 17.875H20.3125C21.32 17.874 22.2919 18.2473 23.0395 18.9226C23.7872 19.5979 24.2573 20.5268 24.3585 21.5292C24.4598 22.5316 24.185 23.5358 23.5874 24.3469C22.9899 25.1581 22.1123 25.7183 21.125 25.9187V27.625H17.875V26H14.625V22.75H20.3125C20.528 22.75 20.7347 22.6644 20.887 22.512C21.0394 22.3596 21.125 22.153 21.125 21.9375C21.125 21.722 21.0394 21.5153 20.887 21.363C20.7347 21.2106 20.528 21.125 20.3125 21.125H18.6875C17.68 21.126 16.7081 20.7526 15.9605 20.0774C15.2128 19.4021 14.7427 18.4731 14.6415 17.4708C14.5402 16.4684 14.8151 15.4642 15.4126 14.653C16.0101 13.8419 16.8877 13.2817 17.875 13.0812V11.375H21.125V13H24.375Z" fill="white"/>
<path d="M69.215 34.42H67.605C65.1783 34.42 63.0083 34.14 61.095 33.58C59.205 32.9967 57.7 32.2617 56.58 31.375C55.46 30.4883 54.5267 29.45 53.78 28.26C53.0567 27.0467 52.5667 25.8917 52.31 24.795C52.0533 23.6983 51.925 22.5783 51.925 21.435V20.385C51.925 19.2183 52.0533 18.0867 52.31 16.99C52.5667 15.8933 53.0567 14.7617 53.78 13.595C54.5033 12.405 55.425 11.3783 56.545 10.515C57.6883 9.65167 59.205 8.94 61.095 8.38C62.985 7.82 65.155 7.54 67.605 7.54H69.215C71.5717 7.54 73.6717 7.76167 75.515 8.205C77.3583 8.625 78.84 9.185 79.96 9.885C81.08 10.585 81.99 11.4133 82.69 12.37C83.4133 13.3033 83.9033 14.2367 84.16 15.17C84.44 16.1033 84.58 17.0717 84.58 18.075V18.25H75.97C75.9233 18.0167 75.865 17.7833 75.795 17.55C75.725 17.3167 75.515 16.9783 75.165 16.535C74.8383 16.0683 74.43 15.6717 73.94 15.345C73.45 15.0183 72.715 14.7267 71.735 14.47C70.7783 14.2133 69.67 14.085 68.41 14.085C66.94 14.085 65.6683 14.2833 64.595 14.68C63.545 15.0533 62.74 15.5783 62.18 16.255C61.6433 16.9083 61.2467 17.5967 60.99 18.32C60.7567 19.0433 60.64 19.8133 60.64 20.63V21.085C60.64 21.855 60.7567 22.6133 60.99 23.36C61.2467 24.0833 61.655 24.795 62.215 25.495C62.775 26.195 63.58 26.755 64.63 27.175C65.7033 27.595 66.975 27.805 68.445 27.805C69.705 27.805 70.8133 27.6767 71.77 27.42C72.7267 27.1633 73.45 26.8717 73.94 26.545C74.4533 26.195 74.8733 25.7983 75.2 25.355C75.5267 24.8883 75.725 24.5383 75.795 24.305C75.865 24.0483 75.9233 23.8033 75.97 23.57H84.58V23.78C84.58 24.7367 84.4517 25.67 84.195 26.58C83.9383 27.49 83.4483 28.435 82.725 29.415C82.0017 30.395 81.0917 31.2467 79.995 31.97C78.8983 32.67 77.4167 33.2533 75.55 33.72C73.7067 34.1867 71.595 34.42 69.215 34.42ZM103.866 7.54H105.441C107.937 7.54 110.154 7.82 112.091 8.38C114.051 8.91666 115.614 9.61666 116.781 10.48C117.947 11.32 118.904 12.3233 119.651 13.49C120.421 14.6567 120.946 15.8 121.226 16.92C121.506 18.04 121.646 19.195 121.646 20.385V21.435C121.646 22.625 121.506 23.78 121.226 24.9C120.946 26.02 120.432 27.175 119.686 28.365C118.939 29.5317 117.982 30.5583 116.816 31.445C115.649 32.3083 114.086 33.02 112.126 33.58C110.166 34.14 107.937 34.42 105.441 34.42H103.866C101.369 34.42 99.1405 34.14 97.1805 33.58C95.2439 33.02 93.6922 32.3083 92.5255 31.445C91.3589 30.5583 90.3905 29.5317 89.6205 28.365C88.8739 27.175 88.3605 26.02 88.0805 24.9C87.8005 23.78 87.6605 22.625 87.6605 21.435V20.385C87.6605 19.195 87.8005 18.04 88.0805 16.92C88.3605 15.8 88.8739 14.6567 89.6205 13.49C90.3905 12.3233 91.3589 11.32 92.5255 10.48C93.6922 9.61666 95.2439 8.91666 97.1805 8.38C99.1405 7.82 101.369 7.54 103.866 7.54ZM112.931 21.12V20.665C112.931 19.8483 112.814 19.1017 112.581 18.425C112.371 17.725 111.986 17.025 111.426 16.325C110.866 15.625 110.002 15.0767 108.836 14.68C107.692 14.26 106.304 14.05 104.671 14.05C103.014 14.05 101.602 14.26 100.436 14.68C99.2922 15.0767 98.4405 15.625 97.8805 16.325C97.3205 17.025 96.9239 17.725 96.6905 18.425C96.4805 19.1017 96.3755 19.8483 96.3755 20.665V21.12C96.3755 21.9133 96.4922 22.6717 96.7255 23.395C96.9589 24.095 97.3555 24.8067 97.9155 25.53C98.4989 26.23 99.3622 26.79 100.506 27.21C101.672 27.63 103.061 27.84 104.671 27.84C106.304 27.84 107.692 27.63 108.836 27.21C110.002 26.79 110.866 26.23 111.426 25.53C111.986 24.8067 112.371 24.095 112.581 23.395C112.814 22.695 112.931 21.9367 112.931 21.12ZM134.317 7.96V34H125.952V7.96H134.317ZM162.984 34L147.934 18.11V34H139.779V7.96H148.319L162.949 23.57V7.96H171.069V34H162.984ZM190.82 34.455H189.875C180.238 34.455 175.42 31.5267 175.42 25.67V25.355H184.45C184.66 27.6183 186.573 28.75 190.19 28.75H190.4C192.686 28.75 194.215 28.505 194.985 28.015C195.755 27.5017 196.14 26.8367 196.14 26.02C196.14 25.25 195.79 24.6667 195.09 24.27C194.39 23.8733 193.036 23.6517 191.03 23.605L187.46 23.5C179.643 23.2667 175.735 20.6767 175.735 15.73V15.415C175.735 14.2483 175.933 13.2333 176.33 12.37C176.726 11.4833 177.403 10.6667 178.36 9.92C179.316 9.17333 180.716 8.60167 182.56 8.205C184.403 7.80833 186.666 7.61 189.35 7.61H190.68C192.99 7.61 194.996 7.77333 196.7 8.1C198.426 8.42667 199.78 8.835 200.76 9.325C201.74 9.815 202.521 10.4333 203.105 11.18C203.688 11.9033 204.061 12.6033 204.225 13.28C204.411 13.9567 204.505 14.7033 204.505 15.52V15.8H195.615C195.335 14.0267 193.503 13.14 190.12 13.14H189.805C187.728 13.14 186.316 13.3267 185.57 13.7C184.823 14.05 184.45 14.575 184.45 15.275C184.45 15.9517 184.788 16.4883 185.465 16.885C186.165 17.2583 187.436 17.4683 189.28 17.515L192.955 17.62C195.311 17.69 197.295 17.9233 198.905 18.32C200.515 18.6933 201.751 19.2417 202.615 19.965C203.478 20.665 204.085 21.4467 204.435 22.31C204.785 23.1733 204.96 24.1883 204.96 25.355V25.775C204.96 26.685 204.866 27.5133 204.68 28.26C204.493 28.9833 204.096 29.7533 203.49 30.57C202.906 31.3633 202.113 32.04 201.11 32.6C200.13 33.1367 198.765 33.58 197.015 33.93C195.265 34.28 193.2 34.455 190.82 34.455ZM223.616 34.455H222.671C213.034 34.455 208.216 31.5267 208.216 25.67V25.355H217.246C217.456 27.6183 219.369 28.75 222.986 28.75H223.196C225.483 28.75 227.011 28.505 227.781 28.015C228.551 27.5017 228.936 26.8367 228.936 26.02C228.936 25.25 228.586 24.6667 227.886 24.27C227.186 23.8733 225.833 23.6517 223.826 23.605L220.256 23.5C212.439 23.2667 208.531 20.6767 208.531 15.73V15.415C208.531 14.2483 208.729 13.2333 209.126 12.37C209.523 11.4833 210.199 10.6667 211.156 9.92C212.113 9.17333 213.513 8.60167 215.356 8.205C217.199 7.80833 219.463 7.61 222.146 7.61H223.476C225.786 7.61 227.793 7.77333 229.496 8.1C231.223 8.42667 232.576 8.835 233.556 9.325C234.536 9.815 235.318 10.4333 235.901 11.18C236.484 11.9033 236.858 12.6033 237.021 13.28C237.208 13.9567 237.301 14.7033 237.301 15.52V15.8H228.411C228.131 14.0267 226.299 13.14 222.916 13.14H222.601C220.524 13.14 219.113 13.3267 218.366 13.7C217.619 14.05 217.246 14.575 217.246 15.275C217.246 15.9517 217.584 16.4883 218.261 16.885C218.961 17.2583 220.233 17.4683 222.076 17.515L225.751 17.62C228.108 17.69 230.091 17.9233 231.701 18.32C233.311 18.6933 234.548 19.2417 235.411 19.965C236.274 20.665 236.881 21.4467 237.231 22.31C237.581 23.1733 237.756 24.1883 237.756 25.355V25.775C237.756 26.685 237.663 27.5133 237.476 28.26C237.289 28.9833 236.893 29.7533 236.286 30.57C235.703 31.3633 234.909 32.04 233.906 32.6C232.926 33.1367 231.561 33.58 229.811 33.93C228.061 34.28 225.996 34.455 223.616 34.455ZM242.132 34V7.96H250.497V17.375H264.322V7.96H272.687V34H264.322V23.85H250.497V34H242.132ZM293.191 7.54H294.766C297.263 7.54 299.479 7.82 301.416 8.38C303.376 8.91666 304.939 9.61666 306.106 10.48C307.273 11.32 308.229 12.3233 308.976 13.49C309.746 14.6567 310.271 15.8 310.551 16.92C310.831 18.04 310.971 19.195 310.971 20.385V21.435C310.971 22.625 310.831 23.78 310.551 24.9C310.271 26.02 309.758 27.175 309.011 28.365C308.264 29.5317 307.308 30.5583 306.141 31.445C304.974 32.3083 303.411 33.02 301.451 33.58C299.491 34.14 297.263 34.42 294.766 34.42H293.191C290.694 34.42 288.466 34.14 286.506 33.58C284.569 33.02 283.018 32.3083 281.851 31.445C280.684 30.5583 279.716 29.5317 278.946 28.365C278.199 27.175 277.686 26.02 277.406 24.9C277.126 23.78 276.986 22.625 276.986 21.435V20.385C276.986 19.195 277.126 18.04 277.406 16.92C277.686 15.8 278.199 14.6567 278.946 13.49C279.716 12.3233 280.684 11.32 281.851 10.48C283.018 9.61666 284.569 8.91666 286.506 8.38C288.466 7.82 290.694 7.54 293.191 7.54ZM302.256 21.12V20.665C302.256 19.8483 302.139 19.1017 301.906 18.425C301.696 17.725 301.311 17.025 300.751 16.325C300.191 15.625 299.328 15.0767 298.161 14.68C297.018 14.26 295.629 14.05 293.996 14.05C292.339 14.05 290.928 14.26 289.761 14.68C288.618 15.0767 287.766 15.625 287.206 16.325C286.646 17.025 286.249 17.725 286.016 18.425C285.806 19.1017 285.701 19.8483 285.701 20.665V21.12C285.701 21.9133 285.818 22.6717 286.051 23.395C286.284 24.095 286.681 24.8067 287.241 25.53C287.824 26.23 288.688 26.79 289.831 27.21C290.998 27.63 292.386 27.84 293.996 27.84C295.629 27.84 297.018 27.63 298.161 27.21C299.328 26.79 300.191 26.23 300.751 25.53C301.311 24.8067 301.696 24.095 301.906 23.395C302.139 22.695 302.256 21.9367 302.256 21.12ZM333.618 25.95H323.643V34H315.278V7.96H333.618C335.788 7.96 337.643 8.17 339.183 8.59C340.723 9.01 341.913 9.62833 342.753 10.445C343.593 11.2383 344.2 12.1367 344.573 13.14C344.946 14.1433 345.133 15.3217 345.133 16.675V17.095C345.133 19.8717 344.258 22.0417 342.508 23.605C340.758 25.1683 337.795 25.95 333.618 25.95ZM323.643 14.225V19.72H332.918C335.275 19.72 336.453 18.81 336.453 16.99V16.885C336.453 15.1117 335.275 14.225 332.918 14.225H323.643Z" fill="white"/>
<path d="M357 28.324C357 27.5907 357.143 26.9013 357.429 26.256C357.715 25.6107 358.104 25.046 358.595 24.562C359.086 24.078 359.662 23.6967 360.322 23.418C360.982 23.1393 361.686 23 362.434 23C363.189 23 363.897 23.1393 364.557 23.418C365.217 23.6967 365.793 24.078 366.284 24.562C366.783 25.046 367.175 25.6107 367.461 26.256C367.747 26.9013 367.89 27.5907 367.89 28.324C367.89 29.05 367.747 29.7357 367.461 30.381C367.175 31.0263 366.783 31.5873 366.284 32.064C365.793 32.5407 365.217 32.9183 364.557 33.197C363.897 33.4757 363.189 33.615 362.434 33.615C361.686 33.615 360.982 33.4757 360.322 33.197C359.662 32.9183 359.086 32.5407 358.595 32.064C358.104 31.5873 357.715 31.0263 357.429 30.381C357.143 29.7357 357 29.05 357 28.324Z" fill="#56CCF2"/>
<path d="M379.936 34.208H379.504C375.099 34.208 372.896 32.8693 372.896 30.192V30.048H377.024C377.12 31.0827 377.995 31.6 379.648 31.6H379.744C380.789 31.6 381.488 31.488 381.84 31.264C382.192 31.0293 382.368 30.7253 382.368 30.352C382.368 30 382.208 29.7333 381.888 29.552C381.568 29.3707 380.949 29.2693 380.032 29.248L378.4 29.2C374.827 29.0933 373.04 27.9093 373.04 25.648V25.504C373.04 24.9707 373.131 24.5067 373.312 24.112C373.493 23.7067 373.803 23.3333 374.24 22.992C374.677 22.6507 375.317 22.3893 376.16 22.208C377.003 22.0267 378.037 21.936 379.264 21.936H379.872C380.928 21.936 381.845 22.0107 382.624 22.16C383.413 22.3093 384.032 22.496 384.48 22.72C384.928 22.944 385.285 23.2267 385.552 23.568C385.819 23.8987 385.989 24.2187 386.064 24.528C386.149 24.8373 386.192 25.1787 386.192 25.552V25.68H382.128C382 24.8693 381.163 24.464 379.616 24.464H379.472C378.523 24.464 377.877 24.5493 377.536 24.72C377.195 24.88 377.024 25.12 377.024 25.44C377.024 25.7493 377.179 25.9947 377.488 26.176C377.808 26.3467 378.389 26.4427 379.232 26.464L380.912 26.512C381.989 26.544 382.896 26.6507 383.632 26.832C384.368 27.0027 384.933 27.2533 385.328 27.584C385.723 27.904 386 28.2613 386.16 28.656C386.32 29.0507 386.4 29.5147 386.4 30.048V30.24C386.4 30.656 386.357 31.0347 386.272 31.376C386.187 31.7067 386.005 32.0587 385.728 32.432C385.461 32.7947 385.099 33.104 384.64 33.36C384.192 33.6053 383.568 33.808 382.768 33.968C381.968 34.128 381.024 34.208 379.936 34.208ZM395.697 34.176H395.233C394.358 34.176 393.563 34.1013 392.849 33.952C392.145 33.8027 391.558 33.6053 391.089 33.36C390.619 33.1147 390.209 32.816 389.857 32.464C389.515 32.1013 389.249 31.744 389.057 31.392C388.865 31.04 388.71 30.6453 388.593 30.208C388.486 29.7707 388.417 29.3867 388.385 29.056C388.353 28.7147 388.337 28.3467 388.337 27.952V22.096H392.145V27.904C392.145 29.984 393.238 31.024 395.425 31.024H395.505C396.187 31.024 396.753 30.9333 397.201 30.752C397.659 30.56 397.99 30.2933 398.193 29.952C398.406 29.6107 398.55 29.2853 398.625 28.976C398.699 28.656 398.737 28.2987 398.737 27.904V22.096H402.545V27.952C402.545 28.336 402.523 28.704 402.481 29.056C402.449 29.3973 402.369 29.7867 402.241 30.224C402.123 30.6507 401.963 31.0453 401.761 31.408C401.569 31.76 401.297 32.112 400.945 32.464C400.593 32.816 400.182 33.1147 399.713 33.36C399.254 33.6053 398.678 33.8027 397.985 33.952C397.302 34.1013 396.539 34.176 395.697 34.176Z" fill="#56CCF2"/>
</g>
<defs>
<clipPath id="clip0_901_319">
<rect width="405" height="39" fill="white"/>
</clipPath>
</defs>
</svg>
