<svg width="278" height="39" viewBox="0 0 278 39" fill="none" xmlns="http://www.w3.org/2000/svg">
<path d="M218 21.324C218 20.5907 218.143 19.9013 218.429 19.256C218.715 18.6107 219.104 18.046 219.595 17.562C220.086 17.078 220.662 16.6967 221.322 16.418C221.982 16.1393 222.686 16 223.434 16C224.189 16 224.897 16.1393 225.557 16.418C226.217 16.6967 226.793 17.078 227.284 17.562C227.783 18.046 228.175 18.6107 228.461 19.256C228.747 19.9013 228.89 20.5907 228.89 21.324C228.89 22.05 228.747 22.7357 228.461 23.381C228.175 24.0263 227.783 24.5873 227.284 25.064C226.793 25.5407 226.217 25.9183 225.557 26.197C224.897 26.4757 224.189 26.615 223.434 26.615C222.686 26.615 221.982 26.4757 221.322 26.197C220.662 25.9183 220.086 25.5407 219.595 25.064C219.104 24.5873 218.715 24.0263 218.429 23.381C218.143 22.7357 218 22.05 218 21.324Z" fill="#56CCF2"/>
<path d="M19.5 3.25058C22.0222 3.25372 24.5092 3.84246 26.7651 4.97042C29.021 6.09837 30.9842 7.73473 32.5 9.75058H30.875V13.0005H35.75C36.0911 13.0006 36.4235 12.8933 36.7002 12.6939C36.9769 12.4944 37.1839 12.213 37.2917 11.8894L38.9167 7.01449L35.8333 5.98667L35.1884 7.92246C32.7507 4.61902 29.3326 2.16928 25.4211 0.922351C21.5095 -0.324582 17.3042 -0.30508 13.4045 0.978077C9.50468 2.26123 6.1094 4.74257 3.7025 8.06847C1.2956 11.3943 -0.000121565 15.3951 8.55437e-09 19.5005H3.25C3.25489 15.1923 4.96851 11.0619 8.01492 8.0155C11.0613 4.96909 15.1917 3.25547 19.5 3.25058Z" fill="white"/>
<path d="M35.7502 19.5C35.7502 22.9106 34.6771 26.2347 32.6829 29.0015C30.6887 31.7683 27.8745 33.8376 24.6389 34.9161C21.4033 35.9946 17.9104 36.0278 14.655 35.0108C11.3995 33.9939 8.54657 31.9785 6.50021 29.25H8.12521V26H3.25021C2.90914 26 2.57671 26.1073 2.3 26.3067C2.0233 26.5061 1.81636 26.7875 1.7085 27.1111L0.0834961 31.9861L3.16693 33.0139L3.81185 31.0781C6.2495 34.3815 9.66764 36.8313 13.5792 38.0782C17.4907 39.3251 21.696 39.3056 25.5958 38.0225C29.4955 36.7393 32.8908 34.258 35.2977 30.9321C37.7046 27.6062 39.0003 23.6054 39.0002 19.5H35.7502Z" fill="white"/>
<path d="M8.125 19.5C8.125 21.7497 8.79214 23.949 10.042 25.8196C11.2919 27.6902 13.0685 29.1482 15.147 30.0091C17.2255 30.8701 19.5126 31.0953 21.7192 30.6564C23.9257 30.2175 25.9525 29.1341 27.5433 27.5433C29.1342 25.9525 30.2175 23.9257 30.6564 21.7191C31.0953 19.5126 30.8701 17.2255 30.0091 15.147C29.1482 13.0684 27.6902 11.2919 25.8196 10.042C23.949 8.79214 21.7498 8.125 19.5 8.125C16.4842 8.12839 13.5929 9.32791 11.4604 11.4604C9.32791 13.5929 8.12839 16.4842 8.125 19.5ZM24.375 13V16.25H18.6875C18.472 16.25 18.2654 16.3356 18.113 16.488C17.9606 16.6403 17.875 16.847 17.875 17.0625C17.875 17.278 17.9606 17.4846 18.113 17.637C18.2654 17.7894 18.472 17.875 18.6875 17.875H20.3125C21.32 17.874 22.2919 18.2473 23.0395 18.9226C23.7872 19.5979 24.2573 20.5268 24.3585 21.5292C24.4598 22.5316 24.185 23.5358 23.5874 24.3469C22.9899 25.1581 22.1123 25.7183 21.125 25.9187V27.625H17.875V26H14.625V22.75H20.3125C20.528 22.75 20.7347 22.6644 20.887 22.512C21.0394 22.3596 21.125 22.153 21.125 21.9375C21.125 21.722 21.0394 21.5153 20.887 21.363C20.7347 21.2106 20.528 21.125 20.3125 21.125H18.6875C17.68 21.126 16.7081 20.7526 15.9605 20.0774C15.2128 19.4021 14.7427 18.4731 14.6415 17.4708C14.5402 16.4684 14.8151 15.4642 15.4126 14.653C16.0101 13.8419 16.8877 13.2817 17.875 13.0812V11.375H21.125V13H24.375Z" fill="white"/>
<path d="M67.832 31.704C65.4 31.704 63.288 31.512 61.496 31.128C59.7253 30.744 58.2107 30.2427 56.952 29.624C55.7147 28.984 54.7013 28.248 53.912 27.416C53.144 26.584 52.536 25.7307 52.088 24.856C51.6613 23.96 51.3733 23.0747 51.224 22.2C51.0747 21.304 51 20.4827 51 19.736V18.808C51 18.0613 51.064 17.2507 51.192 16.376C51.3413 15.48 51.6293 14.5947 52.056 13.72C52.4827 12.8453 53.08 12.0027 53.848 11.192C54.616 10.3813 55.6187 9.66667 56.856 9.048C58.1147 8.42933 59.64 7.93867 61.432 7.576C63.224 7.192 65.3573 7 67.832 7H69.08C71.4907 7 73.5707 7.17067 75.32 7.512C77.0907 7.832 78.584 8.26933 79.8 8.824C81.0373 9.35733 82.0293 9.976 82.776 10.68C83.544 11.3627 84.1413 12.0667 84.568 12.792C84.9947 13.496 85.2827 14.1893 85.432 14.872C85.5813 15.5333 85.656 16.12 85.656 16.632V17.048H76.216C76.1733 16.8987 76.0667 16.6213 75.896 16.216C75.7253 15.8107 75.3627 15.4053 74.808 15C74.2747 14.5733 73.496 14.2 72.472 13.88C71.4693 13.56 70.104 13.4 68.376 13.4C66.7333 13.4 65.3893 13.5707 64.344 13.912C63.32 14.232 62.5093 14.6587 61.912 15.192C61.336 15.7253 60.9413 16.3227 60.728 16.984C60.5147 17.6453 60.408 18.3067 60.408 18.968V19.352C60.408 19.992 60.5253 20.664 60.76 21.368C60.9947 22.0507 61.4107 22.6907 62.008 23.288C62.6053 23.864 63.416 24.344 64.44 24.728C65.4853 25.0907 66.808 25.272 68.408 25.272C69.5813 25.272 70.584 25.1867 71.416 25.016C72.248 24.8453 72.952 24.632 73.528 24.376C74.104 24.12 74.5627 23.8427 74.904 23.544C75.2453 23.224 75.512 22.9253 75.704 22.648C75.896 22.3493 76.024 22.0827 76.088 21.848C76.1733 21.6133 76.2267 21.4533 76.248 21.368H85.656V21.88C85.656 22.392 85.5813 23 85.432 23.704C85.2827 24.3867 84.984 25.0907 84.536 25.816C84.1093 26.5413 83.512 27.256 82.744 27.96C81.976 28.664 80.9733 29.2933 79.736 29.848C78.52 30.4027 77.0373 30.8507 75.288 31.192C73.5387 31.5333 71.4693 31.704 69.08 31.704H67.832Z" fill="white"/>
<path d="M105.847 7C108.407 7 110.615 7.192 112.471 7.576C114.327 7.93867 115.895 8.44 117.175 9.08C118.455 9.69867 119.49 10.4133 120.279 11.224C121.069 12.0347 121.677 12.8773 122.103 13.752C122.53 14.6267 122.818 15.5013 122.967 16.376C123.117 17.2507 123.191 18.0613 123.191 18.808V19.768C123.191 20.5147 123.117 21.3253 122.967 22.2C122.839 23.0747 122.551 23.96 122.103 24.856C121.677 25.7307 121.069 26.584 120.279 27.416C119.511 28.2267 118.477 28.952 117.175 29.592C115.895 30.232 114.327 30.744 112.471 31.128C110.615 31.512 108.407 31.704 105.847 31.704H104.407C101.847 31.704 99.6286 31.512 97.7513 31.128C95.8953 30.744 94.3272 30.232 93.0472 29.592C91.7672 28.952 90.7326 28.2267 89.9432 27.416C89.1539 26.584 88.5459 25.7307 88.1193 24.856C87.6926 23.96 87.4046 23.0747 87.2552 22.2C87.1059 21.3253 87.0312 20.5147 87.0312 19.768V18.808C87.0312 18.0613 87.0953 17.2507 87.2233 16.376C87.3726 15.5013 87.6606 14.6267 88.0872 13.752C88.5352 12.8773 89.1539 12.0347 89.9432 11.224C90.7326 10.4133 91.7672 9.69867 93.0472 9.08C94.3272 8.44 95.8953 7.93867 97.7513 7.576C99.6073 7.192 101.826 7 104.407 7H105.847ZM113.783 19.032C113.783 18.392 113.655 17.7413 113.399 17.08C113.165 16.4187 112.727 15.8213 112.087 15.288C111.447 14.7333 110.562 14.2853 109.431 13.944C108.322 13.5813 106.882 13.4 105.111 13.4C103.319 13.4 101.858 13.5813 100.727 13.944C99.5966 14.2853 98.7113 14.7333 98.0713 15.288C97.4526 15.8213 97.0259 16.4187 96.7913 17.08C96.5566 17.7413 96.4393 18.392 96.4393 19.032V19.416C96.4393 20.0347 96.5566 20.696 96.7913 21.4C97.0473 22.0827 97.4953 22.712 98.1353 23.288C98.7753 23.864 99.6499 24.344 100.759 24.728C101.89 25.0907 103.341 25.272 105.111 25.272C106.861 25.272 108.301 25.0907 109.431 24.728C110.562 24.3653 111.447 23.9067 112.087 23.352C112.727 22.776 113.165 22.1467 113.399 21.464C113.655 20.7813 113.783 20.12 113.783 19.48V19.032Z" fill="white"/>
<path d="M134.512 31.256H125.456V7.448H134.512V31.256Z" fill="white"/>
<path d="M147.757 7.448L161.581 20.984V7.448H170.605V31.256H161.517L146.605 16.824V31.256H137.581V7.448H147.757Z" fill="white"/>
<path d="M187.115 31.704C184.918 31.704 183.03 31.5653 181.451 31.288C179.894 31.0107 178.571 30.648 177.483 30.2C176.416 29.752 175.563 29.24 174.923 28.664C174.283 28.0667 173.782 27.4587 173.419 26.84C173.078 26.2 172.854 25.5707 172.747 24.952C172.64 24.3333 172.587 23.768 172.587 23.256V22.936H182.571C182.592 23.256 182.667 23.6187 182.795 24.024C182.944 24.408 183.222 24.7707 183.627 25.112C184.054 25.432 184.651 25.7093 185.419 25.944C186.187 26.1787 187.222 26.296 188.523 26.296H188.811C190.091 26.296 191.104 26.232 191.851 26.104C192.619 25.976 193.206 25.816 193.611 25.624C194.038 25.4107 194.315 25.176 194.443 24.92C194.571 24.6427 194.635 24.3547 194.635 24.056V24.024C194.635 23.7253 194.571 23.4587 194.443 23.224C194.336 22.968 194.091 22.744 193.707 22.552C193.323 22.36 192.758 22.2107 192.011 22.104C191.286 21.9973 190.294 21.9227 189.035 21.88L184.619 21.752C182.315 21.688 180.406 21.4533 178.891 21.048C177.398 20.6213 176.203 20.088 175.307 19.448C174.432 18.808 173.814 18.072 173.451 17.24C173.11 16.408 172.939 15.5227 172.939 14.584V14.296C172.939 13.336 173.131 12.4187 173.515 11.544C173.899 10.648 174.603 9.86933 175.627 9.208C176.651 8.54667 178.048 8.024 179.819 7.64C181.59 7.23467 183.862 7.032 186.635 7.032H189.483C192.427 7.032 194.838 7.24533 196.715 7.672C198.592 8.09867 200.064 8.664 201.131 9.368C202.198 10.072 202.934 10.8827 203.339 11.8C203.744 12.696 203.947 13.6133 203.947 14.552V14.808H194.059C194.038 14.5947 193.963 14.3493 193.835 14.072C193.728 13.7733 193.472 13.496 193.067 13.24C192.683 12.9627 192.107 12.7387 191.339 12.568C190.592 12.376 189.579 12.28 188.299 12.28H187.979C186.784 12.28 185.835 12.3333 185.131 12.44C184.448 12.5253 183.926 12.6533 183.563 12.824C183.2 12.9733 182.966 13.1547 182.859 13.368C182.774 13.5813 182.731 13.8053 182.731 14.04V14.072C182.731 14.3067 182.784 14.5307 182.891 14.744C183.019 14.9573 183.264 15.1493 183.627 15.32C184.011 15.4907 184.534 15.6293 185.195 15.736C185.878 15.8213 186.784 15.8747 187.915 15.896L192.203 15.992C194.464 16.056 196.384 16.2373 197.963 16.536C199.563 16.8347 200.864 17.2827 201.867 17.88C202.891 18.456 203.627 19.1813 204.075 20.056C204.544 20.9307 204.779 21.9653 204.779 23.16V23.608C204.779 24.6107 204.598 25.6027 204.235 26.584C203.872 27.544 203.158 28.408 202.091 29.176C201.024 29.9227 199.531 30.5307 197.611 31C195.691 31.4693 193.163 31.704 190.027 31.704H187.115Z" fill="white"/>
<path d="M244.252 21.048C245.278 20.508 245.926 19.536 245.926 18.276C245.926 16.314 244.306 15 241.156 15H235V27.6H241.516C244.828 27.6 246.556 26.34 246.556 24.162C246.556 22.578 245.656 21.498 244.252 21.048ZM240.796 17.196C242.218 17.196 242.992 17.682 242.992 18.672C242.992 19.662 242.218 20.166 240.796 20.166H237.898V17.196H240.796ZM241.3 25.404H237.898V22.29H241.3C242.812 22.29 243.622 22.794 243.622 23.856C243.622 24.936 242.812 25.404 241.3 25.404Z" fill="#56CCF2"/>
<path d="M258.178 27.6H261.238L255.604 15H252.724L247.108 27.6H250.096L251.212 24.9H257.062L258.178 27.6ZM252.148 22.686L254.146 17.862L256.144 22.686H252.148Z" fill="#56CCF2"/>
<path d="M273.705 27.6L270.879 23.55C272.517 22.848 273.471 21.462 273.471 19.572C273.471 16.746 271.365 15 267.999 15H262.545V27.6H265.461V24.09H268.143L270.573 27.6H273.705ZM270.519 19.572C270.519 20.94 269.619 21.768 267.837 21.768H265.461V17.376H267.837C269.619 17.376 270.519 18.186 270.519 19.572Z" fill="#56CCF2"/>
</svg>
