<svg width="291" height="24" viewBox="0 0 291 24" fill="none" xmlns="http://www.w3.org/2000/svg">
<path d="M0.656 0.599998H5.84V18.776H17.072V23H0.656V0.599998ZM30.4415 23.384C28.1162 23.384 26.0148 22.8827 24.1375 21.88C22.2815 20.8773 20.8202 19.5013 19.7535 17.752C18.7082 15.9813 18.1855 13.9973 18.1855 11.8C18.1855 9.60267 18.7082 7.62933 19.7535 5.88C20.8202 4.10933 22.2815 2.72267 24.1375 1.72C26.0148 0.717333 28.1162 0.216 30.4415 0.216C32.7668 0.216 34.8575 0.717333 36.7135 1.72C38.5695 2.72267 40.0308 4.10933 41.0975 5.88C42.1642 7.62933 42.6975 9.60267 42.6975 11.8C42.6975 13.9973 42.1642 15.9813 41.0975 17.752C40.0308 19.5013 38.5695 20.8773 36.7135 21.88C34.8575 22.8827 32.7668 23.384 30.4415 23.384ZM30.4415 18.968C31.7642 18.968 32.9588 18.6693 34.0255 18.072C35.0922 17.4533 35.9242 16.6 36.5215 15.512C37.1402 14.424 37.4495 13.1867 37.4495 11.8C37.4495 10.4133 37.1402 9.176 36.5215 8.088C35.9242 7 35.0922 6.15733 34.0255 5.56C32.9588 4.94133 31.7642 4.632 30.4415 4.632C29.1188 4.632 27.9242 4.94133 26.8575 5.56C25.7908 6.15733 24.9482 7 24.3295 8.088C23.7322 9.176 23.4335 10.4133 23.4335 11.8C23.4335 13.1867 23.7322 14.424 24.3295 15.512C24.9482 16.6 25.7908 17.4533 26.8575 18.072C27.9242 18.6693 29.1188 18.968 30.4415 18.968ZM61.7295 11.448H66.4655V20.536C65.2495 21.4533 63.8415 22.1573 62.2415 22.648C60.6415 23.1387 59.0308 23.384 57.4095 23.384C55.0842 23.384 52.9935 22.8933 51.1375 21.912C49.2815 20.9093 47.8202 19.5333 46.7535 17.784C45.7082 16.0133 45.1855 14.0187 45.1855 11.8C45.1855 9.58133 45.7082 7.59733 46.7535 5.848C47.8202 4.07733 49.2922 2.70133 51.1695 1.72C53.0468 0.717333 55.1588 0.216 57.5055 0.216C59.4682 0.216 61.2495 0.546666 62.8495 1.208C64.4495 1.86933 65.7935 2.82933 66.8815 4.088L63.5535 7.16C61.9535 5.47467 60.0228 4.632 57.7615 4.632C56.3322 4.632 55.0628 4.93067 53.9535 5.528C52.8442 6.12533 51.9802 6.968 51.3615 8.056C50.7428 9.144 50.4335 10.392 50.4335 11.8C50.4335 13.1867 50.7428 14.424 51.3615 15.512C51.9802 16.6 52.8335 17.4533 53.9215 18.072C55.0308 18.6693 56.2895 18.968 57.6975 18.968C59.1908 18.968 60.5348 18.648 61.7295 18.008V11.448ZM82.129 23.384C79.8037 23.384 77.7023 22.8827 75.825 21.88C73.969 20.8773 72.5077 19.5013 71.441 17.752C70.3957 15.9813 69.873 13.9973 69.873 11.8C69.873 9.60267 70.3957 7.62933 71.441 5.88C72.5077 4.10933 73.969 2.72267 75.825 1.72C77.7023 0.717333 79.8037 0.216 82.129 0.216C84.4543 0.216 86.545 0.717333 88.401 1.72C90.257 2.72267 91.7183 4.10933 92.785 5.88C93.8517 7.62933 94.385 9.60267 94.385 11.8C94.385 13.9973 93.8517 15.9813 92.785 17.752C91.7183 19.5013 90.257 20.8773 88.401 21.88C86.545 22.8827 84.4543 23.384 82.129 23.384ZM82.129 18.968C83.4517 18.968 84.6463 18.6693 85.713 18.072C86.7797 17.4533 87.6117 16.6 88.209 15.512C88.8277 14.424 89.137 13.1867 89.137 11.8C89.137 10.4133 88.8277 9.176 88.209 8.088C87.6117 7 86.7797 6.15733 85.713 5.56C84.6463 4.94133 83.4517 4.632 82.129 4.632C80.8063 4.632 79.6117 4.94133 78.545 5.56C77.4783 6.15733 76.6357 7 76.017 8.088C75.4197 9.176 75.121 10.4133 75.121 11.8C75.121 13.1867 75.4197 14.424 76.017 15.512C76.6357 16.6 77.4783 17.4533 78.545 18.072C79.6117 18.6693 80.8063 18.968 82.129 18.968ZM99.192 23.256C98.3173 23.256 97.5813 22.9573 96.984 22.36C96.3867 21.7627 96.088 21.016 96.088 20.12C96.088 19.2027 96.3867 18.4667 96.984 17.912C97.5813 17.336 98.3173 17.048 99.192 17.048C100.067 17.048 100.803 17.336 101.4 17.912C101.997 18.4667 102.296 19.2027 102.296 20.12C102.296 21.016 101.997 21.7627 101.4 22.36C100.803 22.9573 100.067 23.256 99.192 23.256Z" fill="black"/>
<path d="M123.375 18.84V23H106.031V0.599998H122.959V4.76H111.183V9.624H121.583V13.656H111.183V18.84H123.375ZM141.393 23L135.985 15.224L130.673 23H124.721L133.009 11.608L125.137 0.599998H131.025L136.177 7.864L141.233 0.599998H146.833L139.025 11.416L147.377 23H141.393ZM160.032 23.384C157.75 23.384 155.68 22.8933 153.824 21.912C151.99 20.9093 150.539 19.5333 149.472 17.784C148.427 16.0133 147.904 14.0187 147.904 11.8C147.904 9.58133 148.427 7.59733 149.472 5.848C150.539 4.07733 151.99 2.70133 153.824 1.72C155.68 0.717333 157.76 0.216 160.064 0.216C162.006 0.216 163.755 0.557333 165.312 1.24C166.891 1.92267 168.214 2.904 169.28 4.184L165.952 7.256C164.438 5.50667 162.56 4.632 160.32 4.632C158.934 4.632 157.696 4.94133 156.608 5.56C155.52 6.15733 154.667 7 154.048 8.088C153.451 9.176 153.152 10.4133 153.152 11.8C153.152 13.1867 153.451 14.424 154.048 15.512C154.667 16.6 155.52 17.4533 156.608 18.072C157.696 18.6693 158.934 18.968 160.32 18.968C162.56 18.968 164.438 18.0827 165.952 16.312L169.28 19.384C168.214 20.6853 166.891 21.6773 165.312 22.36C163.734 23.0427 161.974 23.384 160.032 23.384ZM193.325 0.599998V23H188.141V13.816H177.965V23H172.781V0.599998H177.965V9.432H188.141V0.599998H193.325ZM213.377 18.2H202.977L200.993 23H195.681L205.665 0.599998H210.785L220.801 23H215.361L213.377 18.2ZM211.745 14.264L208.193 5.688L204.641 14.264H211.745ZM243.669 0.599998V23H239.413L228.245 9.4V23H223.125V0.599998H227.413L238.549 14.2V0.599998H243.669ZM264.105 11.448H268.841V20.536C267.625 21.4533 266.217 22.1573 264.617 22.648C263.017 23.1387 261.406 23.384 259.785 23.384C257.459 23.384 255.369 22.8933 253.513 21.912C251.657 20.9093 250.195 19.5333 249.129 17.784C248.083 16.0133 247.561 14.0187 247.561 11.8C247.561 9.58133 248.083 7.59733 249.129 5.848C250.195 4.07733 251.667 2.70133 253.545 1.72C255.422 0.717333 257.534 0.216 259.881 0.216C261.843 0.216 263.625 0.546666 265.225 1.208C266.825 1.86933 268.169 2.82933 269.257 4.088L265.929 7.16C264.329 5.47467 262.398 4.632 260.137 4.632C258.707 4.632 257.438 4.93067 256.329 5.528C255.219 6.12533 254.355 6.968 253.737 8.056C253.118 9.144 252.809 10.392 252.809 11.8C252.809 13.1867 253.118 14.424 253.737 15.512C254.355 16.6 255.209 17.4533 256.297 18.072C257.406 18.6693 258.665 18.968 260.073 18.968C261.566 18.968 262.91 18.648 264.105 18.008V11.448ZM291 18.84V23H273.656V0.599998H290.584V4.76H278.808V9.624H289.208V13.656H278.808V18.84H291Z" fill="#2A4BC0"/>
</svg>
