<svg width="291" height="56" viewBox="0 0 291 56" fill="none" xmlns="http://www.w3.org/2000/svg">
<path d="M17.6287 44.0931C14.6203 44.0931 11.893 43.4464 9.44696 42.1531C7.02899 40.8316 5.1171 39.0181 3.7113 36.7126C2.33362 34.379 1.64478 31.7502 1.64478 28.8261C1.64478 25.902 2.33362 23.2873 3.7113 20.9818C5.1171 18.6481 7.02899 16.8347 9.44696 15.5413C11.893 14.2199 14.6343 13.5592 17.6709 13.5592C20.2294 13.5592 22.5349 14.009 24.5874 14.9087C26.668 15.8084 28.4112 17.1018 29.817 18.7887L25.4309 22.8374C23.4346 20.5319 20.9604 19.3792 18.0083 19.3792C16.1807 19.3792 14.55 19.7868 13.1161 20.6022C11.6822 21.3894 10.5575 22.5 9.74217 23.9339C8.95493 25.3678 8.5613 26.9986 8.5613 28.8261C8.5613 30.6536 8.95493 32.2844 9.74217 33.7183C10.5575 35.1522 11.6822 36.2768 13.1161 37.0922C14.55 37.8794 16.1807 38.2731 18.0083 38.2731C20.9604 38.2731 23.4346 37.1063 25.4309 34.7726L29.817 38.8213C28.4112 40.5364 26.668 41.8438 24.5874 42.7435C22.5068 43.6432 20.1872 44.0931 17.6287 44.0931ZM48.1099 44.0931C45.0452 44.0931 42.2758 43.4323 39.8016 42.1109C37.3555 40.7894 35.4296 38.976 34.0238 36.6705C32.6461 34.3368 31.9573 31.722 31.9573 28.8261C31.9573 25.9302 32.6461 23.3294 34.0238 21.0239C35.4296 18.6903 37.3555 16.8628 39.8016 15.5413C42.2758 14.2199 45.0452 13.5592 48.1099 13.5592C51.1745 13.5592 53.9299 14.2199 56.376 15.5413C58.8221 16.8628 60.748 18.6903 62.1538 21.0239C63.5596 23.3294 64.2625 25.9302 64.2625 28.8261C64.2625 31.722 63.5596 34.3368 62.1538 36.6705C60.748 38.976 58.8221 40.7894 56.376 42.1109C53.9299 43.4323 51.1745 44.0931 48.1099 44.0931ZM48.1099 38.2731C49.8531 38.2731 51.4276 37.8794 52.8334 37.0922C54.2392 36.2768 55.3357 35.1522 56.1229 33.7183C56.9383 32.2844 57.346 30.6536 57.346 28.8261C57.346 26.9986 56.9383 25.3678 56.1229 23.9339C55.3357 22.5 54.2392 21.3894 52.8334 20.6022C51.4276 19.7868 49.8531 19.3792 48.1099 19.3792C46.3667 19.3792 44.7922 19.7868 43.3864 20.6022C41.9806 21.3894 40.87 22.5 40.0547 23.9339C39.2674 25.3678 38.8738 26.9986 38.8738 28.8261C38.8738 30.6536 39.2674 32.2844 40.0547 33.7183C40.87 35.1522 41.9806 36.2768 43.3864 37.0922C44.7922 37.8794 46.3667 38.2731 48.1099 38.2731ZM69.3972 14.0652H76.2293V43.587H69.3972V14.0652ZM110.311 14.0652V43.587H104.702L89.9833 25.6631V43.587H83.2355V14.0652H88.8868L103.563 31.9892V14.0652H110.311ZM126.996 44.0931C124.662 44.0931 122.399 43.7838 120.206 43.1652C118.041 42.5186 116.298 41.6891 114.976 40.677L117.296 35.5318C118.561 36.4596 120.065 37.2047 121.808 37.767C123.552 38.3293 125.295 38.6105 127.038 38.6105C128.978 38.6105 130.412 38.3293 131.34 37.767C132.268 37.1765 132.732 36.4034 132.732 35.4474C132.732 34.7445 132.45 34.1681 131.888 33.7183C131.354 33.2403 130.651 32.8607 129.779 32.5796C128.936 32.2984 127.783 31.9891 126.321 31.6518C124.072 31.1176 122.23 30.5834 120.796 30.0492C119.362 29.5149 118.125 28.6574 117.085 27.4765C116.073 26.2957 115.567 24.7212 115.567 22.7531C115.567 21.038 116.031 19.4916 116.958 18.1139C117.886 16.7081 119.278 15.5976 121.134 14.7822C123.017 13.9668 125.309 13.5592 128.008 13.5592C129.892 13.5592 131.733 13.7841 133.533 14.2339C135.332 14.6838 136.907 15.3305 138.256 16.1739L136.148 21.3613C133.42 19.8149 130.693 19.0418 127.966 19.0418C126.054 19.0418 124.634 19.351 123.706 19.9696C122.807 20.5881 122.357 21.4035 122.357 22.4157C122.357 23.4278 122.877 24.187 123.917 24.6931C124.986 25.171 126.602 25.649 128.767 26.127C131.016 26.6612 132.858 27.1954 134.292 27.7296C135.726 28.2638 136.949 29.1073 137.961 30.26C139.001 31.4128 139.522 32.9732 139.522 34.9413C139.522 36.6283 139.044 38.1747 138.088 39.5805C137.16 40.9581 135.754 42.0547 133.87 42.87C131.986 43.6854 129.695 44.0931 126.996 44.0931ZM146.214 43.9244C145.062 43.9244 144.092 43.5307 143.304 42.7435C142.517 41.9563 142.123 40.9722 142.123 39.7913C142.123 38.5823 142.517 37.6123 143.304 36.8813C144.092 36.1222 145.062 35.7426 146.214 35.7426C147.367 35.7426 148.337 36.1222 149.124 36.8813C149.912 37.6123 150.305 38.5823 150.305 39.7913C150.305 40.9722 149.912 41.9563 149.124 42.7435C148.337 43.5307 147.367 43.9244 146.214 43.9244Z" fill="black"/>
<path d="M164.928 44.0931C162.594 44.0931 160.331 43.7838 158.138 43.1652C155.973 42.5186 154.23 41.6891 152.908 40.677L155.228 35.5318C156.493 36.4596 157.997 37.2047 159.74 37.767C161.483 38.3293 163.227 38.6105 164.97 38.6105C166.91 38.6105 168.344 38.3293 169.272 37.767C170.199 37.1765 170.663 36.4034 170.663 35.4474C170.663 34.7445 170.382 34.1681 169.82 33.7183C169.286 33.2403 168.583 32.8607 167.711 32.5796C166.868 32.2984 165.715 31.9891 164.253 31.6518C162.004 31.1176 160.162 30.5834 158.728 30.0492C157.294 29.5149 156.057 28.6574 155.017 27.4765C154.005 26.2957 153.499 24.7212 153.499 22.7531C153.499 21.038 153.962 19.4916 154.89 18.1139C155.818 16.7081 157.21 15.5976 159.065 14.7822C160.949 13.9668 163.241 13.5592 165.94 13.5592C167.824 13.5592 169.665 13.7841 171.465 14.2339C173.264 14.6838 174.839 15.3305 176.188 16.1739L174.079 21.3613C171.352 19.8149 168.625 19.0418 165.898 19.0418C163.986 19.0418 162.566 19.351 161.638 19.9696C160.738 20.5881 160.289 21.4035 160.289 22.4157C160.289 23.4278 160.809 24.187 161.849 24.6931C162.917 25.171 164.534 25.649 166.699 26.127C168.948 26.6612 170.79 27.1954 172.224 27.7296C173.658 28.2638 174.881 29.1073 175.893 30.26C176.933 31.4128 177.453 32.9732 177.453 34.9413C177.453 36.6283 176.975 38.1747 176.019 39.5805C175.092 40.9581 173.686 42.0547 171.802 42.87C169.918 43.6854 167.627 44.0931 164.928 44.0931ZM226.742 14.0652L217.084 43.587H209.746L203.251 23.5965L196.545 43.587H189.249L179.549 14.0652H186.634L193.298 34.8148L200.257 14.0652H206.583L213.33 34.9835L220.205 14.0652H226.742ZM249.01 37.2609H235.303L232.688 43.587H225.687L238.846 14.0652H245.593L258.794 43.587H251.624L249.01 37.2609ZM246.859 32.0735L242.177 20.7709L237.496 32.0735H246.859ZM274.636 14.0652C277.25 14.0652 279.514 14.501 281.426 15.3726C283.366 16.2442 284.856 17.4813 285.896 19.0839C286.936 20.6865 287.456 22.5844 287.456 24.7774C287.456 26.9423 286.936 28.8402 285.896 30.4709C284.856 32.0735 283.366 33.3106 281.426 34.1822C279.514 35.0257 277.25 35.4474 274.636 35.4474H268.689V43.587H261.857V14.0652H274.636ZM274.256 29.8805C276.308 29.8805 277.869 29.4447 278.937 28.5731C280.006 27.6734 280.54 26.4081 280.54 24.7774C280.54 23.1186 280.006 21.8534 278.937 20.9818C277.869 20.082 276.308 19.6322 274.256 19.6322H268.689V29.8805H274.256Z" fill="#2A4BC0"/>
</svg>
