<svg width="16" height="12" viewBox="0 0 16 12" fill="none" xmlns="http://www.w3.org/2000/svg">
<path d="M14.1859 0.558594H1.81383C0.997495 0.558594 0.334473 1.22162 0.334473 2.03795V9.9908C0.334473 10.8071 0.997495 11.4702 1.81383 11.4702H14.1859C15.0023 11.4702 15.6653 10.8071 15.6653 9.9908V2.03795C15.6654 1.22172 15.0024 0.558594 14.186 0.558594H14.1859ZM13.9961 1.50914L7.99998 5.66556L2.00386 1.50914H13.9961ZM14.7147 9.99104C14.7147 10.2823 14.4771 10.52 14.1858 10.52H1.81369C1.52242 10.52 1.28475 10.2823 1.28475 9.99104L1.28488 2.16857L7.99963 6.82324L14.7144 2.16857L14.7147 9.99104Z" fill="#2A4BC0"/>
</svg>
