<svg width="14" height="11" viewBox="0 0 14 11" fill="none" xmlns="http://www.w3.org/2000/svg">
<path d="M0 1.08824C0 0.763362 0.272522 0.5 0.608696 0.5H13.3913C13.7275 0.5 14 0.763362 14 1.08824V2.85291C13.9437 2.85285 13.8867 2.86788 13.8358 2.89941L6.87781 7.20766L0.168361 2.90206C0.116493 2.86877 0.0579197 2.85287 0 2.85293V1.08824Z" fill="#56CCF2"/>
<path d="M0 9.91177V3.50013L6.54108 7.69769C6.74211 7.82669 7.00301 7.82875 7.20619 7.70295L14 3.49637V9.91177C14 10.2366 13.7275 10.5 13.3913 10.5H0.608696C0.272522 10.5 0 10.2366 0 9.91177Z" fill="#56CCF2"/>
</svg>
