<svg width="39" height="31" viewBox="0 0 39 31" fill="none" xmlns="http://www.w3.org/2000/svg">
<path d="M8.03327 12.3641C8.5091 9.37316 12.2477 6.17833 15.1707 6.11035C15.3746 6.11035 15.5785 6.04238 15.7145 5.90643C15.8504 5.83845 15.9864 5.77048 16.0544 5.56655C17.074 3.66324 16.5302 2.16779 14.8308 0.944236C12.8595 -0.483243 9.73266 0.944236 8.16923 2.23577C4.22666 5.49858 0.216126 11.1404 0.420052 16.5106C-0.2597 20.1134 -0.12375 23.9878 0.895878 27.1827C1.57563 29.2219 3.54691 30.2416 5.58617 30.3775C7.62542 30.5136 11.8399 31.1252 13.6752 29.9018C15.5105 28.6781 15.6465 26.299 15.8504 24.2598C16.0543 22.0167 16.6661 17.8021 14.7628 16.0347C12.8595 14.3354 7.4215 16.1707 8.03327 12.3641Z" fill="#C02A96"/>
<path d="M30.4652 12.3641C30.941 9.37316 34.6795 6.17833 37.6026 6.11035C37.8065 6.11035 38.0104 6.04238 38.1464 5.90643C38.2824 5.83845 38.4183 5.77048 38.4864 5.56655C39.506 3.66324 38.9622 2.16779 37.2628 0.944236C35.2915 -0.483243 32.1647 0.944236 30.6011 2.23577C26.6586 5.49858 22.648 11.1405 22.8519 16.5106C22.1722 20.1134 22.3081 23.9878 23.3277 27.1827C24.0074 29.2219 25.9787 30.2416 28.0181 30.3775C30.0573 30.5136 34.2718 31.1252 36.1071 29.9018C37.9423 28.6781 38.0784 26.299 38.2823 24.2598C38.4863 22.0167 39.098 17.8021 37.1947 16.0347C35.2914 14.3354 29.7854 16.1707 30.4652 12.3641Z" fill="#C02A96"/>
</svg>
