<svg width="28" height="28" viewBox="0 0 28 28" fill="none" xmlns="http://www.w3.org/2000/svg">
<path d="M27.2628 10.2387C27.179 9.99184 27.0247 9.77494 26.819 9.61476C26.6134 9.45459 26.3653 9.35815 26.1055 9.33735L18.5041 8.73335L15.2148 1.45202C15.11 1.2175 14.9396 1.01831 14.7242 0.878496C14.5087 0.738677 14.2574 0.664204 14.0005 0.664063C13.7437 0.663922 13.4923 0.73812 13.2767 0.877702C13.0611 1.01728 12.8905 1.21628 12.7854 1.45069L9.49612 8.73335L1.89478 9.33735C1.63939 9.35758 1.39523 9.45097 1.19152 9.60633C0.987812 9.76169 0.833174 9.97245 0.746107 10.2134C0.659041 10.4543 0.643233 10.7153 0.700576 10.965C0.757919 11.2146 0.885984 11.4425 1.06945 11.6214L6.68678 17.0974L4.70012 25.7C4.63979 25.9604 4.65913 26.2329 4.75561 26.4822C4.85209 26.7315 5.02127 26.946 5.24119 27.0979C5.4611 27.2499 5.72161 27.3322 5.9889 27.3342C6.25618 27.3363 6.51791 27.2579 6.74012 27.1094L14.0001 22.2694L21.2601 27.1094C21.4872 27.2601 21.7551 27.3378 22.0276 27.3318C22.3002 27.3258 22.5644 27.2365 22.7846 27.0759C23.0049 26.9153 23.1708 26.6911 23.2598 26.4334C23.3489 26.1758 23.3569 25.897 23.2828 25.6347L20.8441 17.1014L26.8921 11.6587C27.2881 11.3014 27.4335 10.744 27.2628 10.2387Z" fill="#BFC9EC"/>
</svg>
