<svg width="27" height="27" viewBox="0 0 27 27" fill="none" xmlns="http://www.w3.org/2000/svg">
<path d="M26.596 9.57462C26.5122 9.32778 26.358 9.11088 26.1523 8.9507C25.9466 8.79053 25.6986 8.69409 25.4387 8.67329L17.8374 8.06929L14.548 0.787957C14.4433 0.55344 14.2729 0.354252 14.0574 0.214434C13.842 0.0746149 13.5907 0.000141172 13.3338 2.00504e-07L13.3334 21.6053L20.5934 26.4453C20.8205 26.5961 21.0883 26.6737 21.3609 26.6677C21.6334 26.6618 21.8976 26.5725 22.1179 26.4119C22.3382 26.2513 22.504 26.027 22.5931 25.7694C22.6821 25.5117 22.6901 25.233 22.616 24.9706L20.1774 16.4373L26.2254 10.9946C26.6214 10.6373 26.7667 10.08 26.596 9.57462Z" fill="#BFC9EC"/>
<path d="M13.3338 2.00504e-07C13.077 -0.000140771 12.8255 0.0740571 12.6099 0.213639C12.3943 0.353221 12.2237 0.552222 12.1187 0.786624L8.82937 8.06929L1.22804 8.67329C0.972642 8.69352 0.728486 8.7869 0.524775 8.94226C0.321064 9.09762 0.166426 9.30838 0.0793592 9.54933C-0.00770717 9.79027 -0.0235146 10.0512 0.0338283 10.3009C0.0911711 10.5506 0.219236 10.7785 0.402702 10.9573L6.02003 16.4333L4.03337 25.036C3.97305 25.2964 3.99238 25.5689 4.08886 25.8181C4.18534 26.0674 4.35452 26.2819 4.57444 26.4339C4.79436 26.5858 5.05486 26.6681 5.32215 26.6702C5.58943 26.6722 5.85116 26.5939 6.07337 26.4453L13.3334 21.6053L13.3338 2.00504e-07Z" fill="#2A4BC0"/>
</svg>
