<svg width="16" height="16" viewBox="0 0 16 16" fill="none" xmlns="http://www.w3.org/2000/svg">
<path d="M15.2796 0.724606C15.0785 0.519201 14.8206 0.378452 14.539 0.32055C14.2574 0.262654 13.9649 0.29031 13.6991 0.399712L1.20922 5.40007C0.836763 5.55974 0.547159 5.86668 0.409232 6.24777C0.271312 6.62882 0.297371 7.04996 0.481389 7.41113C0.665285 7.77229 0.99055 8.041 1.37985 8.1536L6.20963 9.42575V9.42562C6.29285 9.44787 6.3687 9.49176 6.42967 9.5526C6.49051 9.61345 6.53427 9.68942 6.55652 9.77264L7.82867 14.6131C7.90156 14.9143 8.06935 15.184 8.30746 15.3824C8.54544 15.5808 8.84107 15.6972 9.15034 15.7145H9.24954C9.54186 15.7166 9.82803 15.6297 10.0699 15.4655C10.3118 15.3013 10.4982 15.0673 10.6042 14.7948L15.5992 2.30496C15.7093 2.03969 15.7377 1.74749 15.6809 1.46588C15.624 1.18438 15.4842 0.926131 15.2798 0.724417L15.2796 0.724606ZM14.6958 1.94722L9.70084 14.4317C9.64872 14.5582 9.54596 14.6572 9.4175 14.7046C9.28905 14.7521 9.14658 14.7436 9.02478 14.6813C8.90283 14.619 8.81248 14.5085 8.77573 14.3767L7.50358 9.54153C7.47654 9.45585 7.44151 9.37288 7.39898 9.29372L10.202 6.49622C10.3108 6.37047 10.3484 6.19813 10.3019 6.03858C10.2555 5.8789 10.1313 5.75376 9.97202 5.70595C9.81284 5.65826 9.64025 5.69452 9.51365 5.80233L6.71617 8.59982C6.637 8.55741 6.55403 8.52238 6.46835 8.49521L1.62755 7.2286C1.49578 7.19185 1.38527 7.1015 1.32295 6.97956C1.26063 6.85774 1.25214 6.71527 1.29959 6.58683C1.34704 6.45837 1.44599 6.35561 1.57248 6.30349L14.057 1.30848C14.1467 1.26472 14.2478 1.2496 14.3462 1.26546C14.4448 1.28119 14.5361 1.32704 14.6077 1.39662C14.678 1.46767 14.7243 1.55913 14.7401 1.65783C14.7559 1.75654 14.7404 1.85783 14.6958 1.94732L14.6958 1.94722Z" fill="#2A4BC0"/>
</svg>
