<svg width="64" height="64" viewBox="0 0 64 64" fill="none" xmlns="http://www.w3.org/2000/svg">
<g clip-path="url(#clip0_4_117)">
<path d="M1.7866 48.1566H16.3815C20.8991 48.1566 24.9727 45.6528 27.0131 41.6226L35.9295 24.0094C37.3584 21.1869 40.211 19.4338 43.3745 19.4338H58.0095L52.9457 23.7505C52.1951 24.3904 52.1053 25.5176 52.7452 26.2681C53.3851 27.0188 54.5121 27.1085 55.2628 26.4686L62.9556 19.9106C63.6195 19.3446 64 18.5199 64 17.6477C63.9999 16.7755 63.6191 15.9508 62.9555 15.3852L55.2626 8.82726C54.9263 8.54076 54.5147 8.40039 54.1049 8.40039C53.6001 8.40039 53.0981 8.61326 52.7451 9.02776C52.1052 9.77838 52.1951 10.9055 52.9456 11.5454L58.0094 15.8622H43.3742C38.8567 15.8622 34.7831 18.3661 32.7427 22.3963L23.8262 40.0094C22.3974 42.8318 19.5448 44.5849 16.3813 44.5849H1.78635C0.800232 44.5849 0.000488281 45.3847 0.000488281 46.3708C0.000740051 47.3569 0.800358 48.1566 1.7866 48.1566Z" fill="#BDBDBD"/>
<path d="M31.7927 39.7243L32.7431 41.6035C34.7839 45.6345 38.8576 48.1386 43.3743 48.1386H58.0084L52.9453 52.4547C52.1947 53.0946 52.105 54.2218 52.7448 54.9723C53.3847 55.7227 54.512 55.8125 55.2625 55.1728L62.9552 48.6147C63.6189 48.0491 63.9997 47.2245 63.9999 46.3522C63.9999 45.4799 63.6194 44.6551 62.9554 44.0891L55.2625 37.5313C54.9262 37.2448 54.5146 37.1045 54.1048 37.1045C53.6 37.1045 53.0982 37.3174 52.745 37.7319C52.1051 38.4825 52.195 39.6096 52.9455 40.2495L58.0102 44.5669H43.3743C40.2114 44.5669 37.3587 42.8132 35.9299 39.991L34.98 38.1123C34.6655 37.4904 34.0371 37.132 33.3848 37.132C33.1137 37.132 32.8386 37.194 32.5803 37.3245C31.7002 37.7699 31.3476 38.8441 31.7927 39.7243Z" fill="#BDBDBD"/>
<path d="M1.78624 19.4153H16.3816C19.5452 19.4153 22.3977 21.168 23.8263 23.9902L24.7871 25.8866C25.2328 26.7665 26.308 27.1181 27.1871 26.6728C28.0669 26.227 28.4187 25.1525 27.9732 24.2728L27.0126 22.3765C24.9725 18.3468 20.899 15.8435 16.3814 15.8435H1.78587C0.799743 15.8435 0 16.6432 0 17.6293C0 18.6154 0.800117 19.4153 1.78624 19.4153Z" fill="#BDBDBD"/>
</g>
<defs>
<clipPath id="clip0_4_117">
<rect width="64" height="64" fill="white"/>
</clipPath>
</defs>
</svg>
